<svg xmlns="http://www.w3.org/2000/svg" width="1254" height="1254" viewBox="0 0 1254 1254">
  <g fill="#E8E7E7" shape-rendering="geometricPrecision">
    <path d="M 662 235 L 658 235 L 657 236 L 649 236 L 648 237 L 642 237 L 641 238 L 635 238 L 634 239 L 629 239 L 628 240 L 624 240 L 623 241 L 618 241 L 617 242 L 613 242 L 612 243 L 609 243 L 608 244 L 599 245 L 598 246 L 595 246 L 594 247 L 592 247 L 591 248 L 588 248 L 587 249 L 583 249 L 582 250 L 580 250 L 579 251 L 576 251 L 575 252 L 573 252 L 572 253 L 570 253 L 569 254 L 567 254 L 566 255 L 564 255 L 563 256 L 561 256 L 557 258 L 554 258 L 553 259 L 551 259 L 548 261 L 546 261 L 543 263 L 541 263 L 538 265 L 536 265 L 535 266 L 530 267 L 523 271 L 521 271 L 518 273 L 516 273 L 505 279 L 503 279 L 495 283 L 493 285 L 491 285 L 481 290 L 479 292 L 467 298 L 462 302 L 452 307 L 446 312 L 443 313 L 441 315 L 440 315 L 438 317 L 434 319 L 431 322 L 430 322 L 428 324 L 424 326 L 421 329 L 420 329 L 416 333 L 415 333 L 407 340 L 406 340 L 401 345 L 400 345 L 387 357 L 386 357 L 363 380 L 363 381 L 353 391 L 353 392 L 347 398 L 347 399 L 342 404 L 342 405 L 338 409 L 338 410 L 335 413 L 335 414 L 328 422 L 328 423 L 326 425 L 326 426 L 324 428 L 322 432 L 317 438 L 313 446 L 307 454 L 305 459 L 303 461 L 301 466 L 299 468 L 289 488 L 289 490 L 284 499 L 284 501 L 282 504 L 281 509 L 276 519 L 276 521 L 274 525 L 274 528 L 273 529 L 273 531 L 272 532 L 272 534 L 271 535 L 271 537 L 269 541 L 269 544 L 267 548 L 267 551 L 266 552 L 266 555 L 265 556 L 265 559 L 264 560 L 264 563 L 263 564 L 262 573 L 261 574 L 261 579 L 260 580 L 260 584 L 259 585 L 259 591 L 258 592 L 258 597 L 257 598 L 257 607 L 256 608 L 256 619 L 255 620 L 255 667 L 256 668 L 256 679 L 257 680 L 257 689 L 258 690 L 258 696 L 259 697 L 259 702 L 260 703 L 260 708 L 261 709 L 261 713 L 262 714 L 263 723 L 264 724 L 264 727 L 265 728 L 265 731 L 266 732 L 267 739 L 268 740 L 268 742 L 269 743 L 269 746 L 270 747 L 270 749 L 271 750 L 271 752 L 272 753 L 272 755 L 274 759 L 274 762 L 275 763 L 276 768 L 278 771 L 278 773 L 280 776 L 280 778 L 283 783 L 283 785 L 286 790 L 286 792 L 299 818 L 301 820 L 307 832 L 309 834 L 312 840 L 314 842 L 314 843 L 316 845 L 318 849 L 321 852 L 321 853 L 323 855 L 325 859 L 328 862 L 328 863 L 331 866 L 331 867 L 335 871 L 335 872 L 338 875 L 338 876 L 352 891 L 352 892 L 380 920 L 381 920 L 387 926 L 388 926 L 392 930 L 393 930 L 407 942 L 411 944 L 414 947 L 415 947 L 417 949 L 418 949 L 420 951 L 421 951 L 423 953 L 424 953 L 426 955 L 427 955 L 438 963 L 443 965 L 445 967 L 452 970 L 454 972 L 478 984 L 480 984 L 487 988 L 489 988 L 495 991 L 497 991 L 502 994 L 504 994 L 508 996 L 511 996 L 514 998 L 516 998 L 517 999 L 519 999 L 523 1001 L 530 1002 L 534 1004 L 537 1004 L 538 1005 L 541 1005 L 542 1006 L 545 1006 L 546 1007 L 549 1007 L 550 1008 L 554 1008 L 555 1009 L 559 1009 L 560 1010 L 564 1010 L 565 1011 L 571 1011 L 572 1012 L 579 1012 L 580 1013 L 587 1013 L 588 1014 L 598 1014 L 599 1015 L 611 1015 L 612 1016 L 644 1016 L 645 1015 L 658 1015 L 659 1014 L 669 1014 L 670 1013 L 676 1013 L 677 1012 L 683 1012 L 684 1011 L 690 1011 L 691 1010 L 695 1010 L 696 1009 L 701 1009 L 702 1008 L 705 1008 L 706 1007 L 709 1007 L 710 1006 L 713 1006 L 714 1005 L 717 1005 L 718 1004 L 721 1004 L 725 1002 L 728 1002 L 732 1000 L 735 1000 L 736 999 L 738 999 L 741 997 L 743 997 L 744 996 L 746 996 L 747 995 L 749 995 L 750 994 L 755 993 L 760 990 L 765 989 L 774 984 L 776 984 L 800 972 L 802 970 L 812 965 L 814 963 L 817 962 L 819 960 L 820 960 L 822 958 L 823 958 L 825 956 L 829 954 L 832 951 L 833 951 L 835 949 L 839 947 L 842 944 L 843 944 L 846 941 L 847 941 L 857 932 L 858 932 L 861 929 L 862 929 L 870 921 L 871 921 L 897 895 L 897 894 L 910 880 L 910 879 L 914 875 L 914 874 L 921 866 L 921 865 L 924 862 L 926 858 L 929 855 L 929 854 L 931 852 L 931 851 L 939 840 L 940 837 L 946 829 L 949 822 L 953 817 L 959 804 L 961 802 L 961 800 L 969 784 L 969 782 L 972 777 L 972 775 L 977 765 L 977 763 L 978 762 L 978 760 L 979 759 L 979 757 L 980 756 L 981 751 L 983 748 L 983 746 L 985 742 L 985 739 L 987 735 L 987 732 L 988 731 L 988 728 L 989 727 L 989 724 L 990 723 L 991 716 L 992 715 L 992 711 L 993 710 L 993 707 L 994 706 L 994 702 L 995 701 L 995 696 L 996 695 L 996 690 L 997 689 L 997 683 L 998 682 L 998 671 L 995 671 L 988 679 L 988 680 L 985 683 L 985 684 L 980 690 L 980 691 L 969 703 L 969 704 L 944 729 L 943 729 L 936 736 L 935 736 L 927 743 L 926 743 L 924 745 L 923 745 L 921 747 L 917 749 L 914 752 L 913 752 L 908 756 L 903 758 L 898 762 L 876 773 L 874 773 L 869 776 L 867 776 L 864 778 L 862 778 L 861 779 L 859 779 L 858 780 L 856 780 L 855 781 L 853 781 L 852 782 L 850 782 L 849 783 L 847 783 L 843 785 L 840 785 L 839 786 L 836 786 L 835 787 L 832 787 L 831 788 L 827 788 L 826 789 L 822 789 L 821 790 L 818 790 L 817 791 L 811 791 L 810 792 L 805 792 L 804 793 L 796 793 L 795 794 L 781 794 L 780 795 L 760 795 L 759 794 L 746 794 L 745 793 L 738 793 L 737 792 L 731 792 L 730 791 L 725 791 L 724 790 L 720 790 L 719 789 L 715 789 L 714 788 L 710 788 L 709 787 L 702 786 L 701 785 L 699 785 L 698 784 L 696 784 L 692 782 L 689 782 L 688 781 L 686 781 L 685 780 L 680 779 L 670 774 L 668 774 L 665 772 L 663 772 L 645 763 L 643 761 L 640 760 L 638 758 L 630 754 L 628 752 L 624 750 L 621 747 L 620 747 L 618 745 L 614 743 L 605 735 L 604 735 L 599 730 L 598 730 L 576 708 L 576 707 L 568 699 L 568 698 L 560 689 L 560 688 L 554 681 L 554 680 L 548 672 L 547 669 L 545 667 L 544 664 L 540 659 L 538 654 L 536 652 L 529 638 L 529 636 L 526 631 L 526 629 L 523 624 L 523 622 L 521 619 L 520 614 L 518 611 L 518 609 L 517 608 L 517 606 L 516 605 L 516 603 L 514 599 L 514 596 L 512 592 L 512 589 L 511 588 L 511 585 L 510 584 L 510 580 L 508 576 L 508 572 L 507 571 L 507 567 L 506 566 L 506 562 L 505 561 L 505 555 L 504 554 L 504 546 L 503 545 L 503 535 L 502 534 L 502 493 L 503 492 L 503 484 L 504 483 L 504 475 L 505 474 L 505 468 L 506 467 L 506 462 L 507 461 L 507 457 L 508 456 L 509 447 L 510 446 L 510 443 L 512 439 L 512 435 L 514 431 L 514 428 L 515 427 L 515 425 L 516 424 L 516 422 L 517 421 L 517 419 L 518 418 L 518 416 L 519 415 L 519 413 L 520 412 L 520 410 L 521 409 L 522 404 L 525 399 L 525 397 L 527 394 L 527 392 L 529 389 L 529 387 L 537 371 L 539 369 L 543 360 L 545 358 L 549 350 L 553 345 L 554 342 L 560 335 L 560 334 L 562 332 L 564 328 L 573 318 L 573 317 L 582 307 L 582 306 L 605 283 L 606 283 L 615 274 L 616 274 L 620 270 L 621 270 L 625 266 L 626 266 L 637 257 L 641 255 L 644 252 L 645 252 L 650 248 L 653 247 L 655 245 L 656 245 L 658 243 L 662 241 L 664 239 L 664 236 Z"/>
  </g>
</svg>
